<mxfile host="app.diagrams.net" modified="2023-01-26T11:50:20.410Z" agent="5.0 (Macintosh; Intel Mac OS X 10_15_7) AppleWebKit/605.1.15 (KHTML, like Gecko) Version/15.6.1 Safari/605.1.15" etag="5ljg2xyCuWqVNrbt1biY" version="20.8.11" type="github">
  <diagram name="Page-1" id="59A19j5Oo2BsVCJGjt83">
    <mxGraphModel dx="778" dy="537" grid="1" gridSize="10" guides="1" tooltips="1" connect="1" arrows="1" fold="1" page="1" pageScale="1" pageWidth="827" pageHeight="1169" math="0" shadow="0">
      <root>
        <mxCell id="0" />
        <mxCell id="1" parent="0" />
        <mxCell id="r0oJ4M7A2-ch-Gi2pdNr-1" value="Серверная &amp;nbsp;часть системы" style="rounded=0;whiteSpace=wrap;html=1;" vertex="1" parent="1">
          <mxGeometry x="340" y="250" width="190" height="60" as="geometry" />
        </mxCell>
        <mxCell id="r0oJ4M7A2-ch-Gi2pdNr-6" value="База данных" style="html=1;verticalLabelPosition=bottom;align=center;labelBackgroundColor=#ffffff;verticalAlign=top;strokeWidth=2;strokeColor=#000000;shadow=0;dashed=0;shape=mxgraph.ios7.icons.data;" vertex="1" parent="1">
          <mxGeometry x="310" y="290" width="40" height="40" as="geometry" />
        </mxCell>
        <mxCell id="r0oJ4M7A2-ch-Gi2pdNr-7" value="Веб-приложение&amp;nbsp;" style="html=1;dashed=0;whitespace=wrap;strokeColor=#000000;" vertex="1" parent="1">
          <mxGeometry x="270" y="420" width="150" height="50" as="geometry" />
        </mxCell>
        <mxCell id="r0oJ4M7A2-ch-Gi2pdNr-8" value="Административная панель&amp;nbsp;" style="html=1;dashed=0;whitespace=wrap;strokeColor=#000000;" vertex="1" parent="1">
          <mxGeometry x="460" y="420" width="170" height="50" as="geometry" />
        </mxCell>
        <mxCell id="r0oJ4M7A2-ch-Gi2pdNr-9" value="" style="endArrow=classic;html=1;rounded=0;" edge="1" parent="1">
          <mxGeometry width="50" height="50" relative="1" as="geometry">
            <mxPoint x="400" y="410" as="sourcePoint" />
            <mxPoint x="400" y="320" as="targetPoint" />
          </mxGeometry>
        </mxCell>
        <mxCell id="r0oJ4M7A2-ch-Gi2pdNr-15" value="" style="rounded=0;whiteSpace=wrap;html=1;strokeColor=#000000;fillColor=none;dashed=1;" vertex="1" parent="1">
          <mxGeometry x="200" y="190" width="480" height="330" as="geometry" />
        </mxCell>
        <mxCell id="r0oJ4M7A2-ch-Gi2pdNr-10" value="" style="endArrow=classic;html=1;rounded=0;" edge="1" parent="1">
          <mxGeometry width="50" height="50" relative="1" as="geometry">
            <mxPoint x="470" y="410" as="sourcePoint" />
            <mxPoint x="470" y="320" as="targetPoint" />
          </mxGeometry>
        </mxCell>
        <mxCell id="r0oJ4M7A2-ch-Gi2pdNr-12" value="REST API" style="text;html=1;strokeColor=none;fillColor=none;align=center;verticalAlign=middle;whiteSpace=wrap;rounded=0;" vertex="1" parent="1">
          <mxGeometry x="330" y="370" width="60" height="30" as="geometry" />
        </mxCell>
        <mxCell id="r0oJ4M7A2-ch-Gi2pdNr-13" value="REST API" style="text;html=1;strokeColor=none;fillColor=none;align=center;verticalAlign=middle;whiteSpace=wrap;rounded=0;" vertex="1" parent="1">
          <mxGeometry x="480" y="370" width="60" height="30" as="geometry" />
        </mxCell>
        <mxCell id="r0oJ4M7A2-ch-Gi2pdNr-17" value="Система А-Меню" style="text;html=1;strokeColor=none;fillColor=none;align=center;verticalAlign=middle;whiteSpace=wrap;rounded=0;" vertex="1" parent="1">
          <mxGeometry x="210" y="200" width="100" height="30" as="geometry" />
        </mxCell>
      </root>
    </mxGraphModel>
  </diagram>
</mxfile>
